<?xml version="1.0" encoding="utf-8"?>
<!-- Generator: Adobe Illustrator 18.0.0, SVG Export Plug-In . SVG Version: 6.00 Build 0)  -->
<!DOCTYPE svg PUBLIC "-//W3C//DTD SVG 1.1//EN" "http://www.w3.org/Graphics/SVG/1.1/DTD/svg11.dtd">
<svg version="1.1" xmlns="http://www.w3.org/2000/svg" xmlns:xlink="http://www.w3.org/1999/xlink" x="0px" y="0px"
	 viewBox="0 0 841.1 281.7" enable-background="new 0 0 841.1 281.7" xml:space="preserve">
<g id="backup">
</g>
<g id="FOND_NOIR">
	<rect x="0" y="0" width="841.1" height="281.7"/>
	<g>
		<radialGradient id="SVGID_1_" cx="175.3122" cy="78.281" r="147.7965" gradientUnits="userSpaceOnUse">
			<stop  offset="0" style="stop-color:#FF5D00"/>
			<stop  offset="0.2481" style="stop-color:#FE5800"/>
			<stop  offset="0.4977" style="stop-color:#F44A00"/>
			<stop  offset="0.7481" style="stop-color:#E82F0C"/>
			<stop  offset="0.9979" style="stop-color:#D70014"/>
			<stop  offset="1" style="stop-color:#D70015"/>
		</radialGradient>
		<circle fill="url(#SVGID_1_)" cx="137.1" cy="140.8" r="74.1"/>
		<g>
			<circle fill="#3F2313" cx="134.9" cy="148.8" r="54.5"/>
			<path fill="#8E4E32" d="M137.1,193.4c-29,0-52.6-23.6-52.6-52.6s23.6-52.6,52.6-52.6s52.6,23.6,52.6,52.6
				S166.1,193.4,137.1,193.4z"/>
			<circle fill="#A86445" cx="130.1" cy="147.8" r="39.6"/>
			<path fill="#F9E8E0" d="M137.1,94.3c25.7,0,46.6,20.9,46.6,46.6s-20.9,46.6-46.6,46.6s-46.6-20.9-46.6-46.6
				S111.4,94.3,137.1,94.3 M137.1,82.3c-32.3,0-58.6,26.3-58.6,58.6s26.3,58.6,58.6,58.6s58.6-26.3,58.6-58.6S169.4,82.3,137.1,82.3
				L137.1,82.3z"/>
			<path fill="#E1C4B7" d="M137.1,101.3c21.8,0,39.6,17.8,39.6,39.6s-17.8,39.6-39.6,39.6s-39.6-17.8-39.6-39.6
				S115.3,101.3,137.1,101.3 M137.1,94.3c-25.7,0-46.6,20.9-46.6,46.6c0,25.7,20.9,46.6,46.6,46.6s46.6-20.9,46.6-46.6
				C183.7,115.1,162.9,94.3,137.1,94.3L137.1,94.3z"/>
		</g>
		<path fill="#A7A9AC" d="M198.9,123c3-10.6,10.6-17.8,16.8-16c6.3,1.8,8.9,11.9,5.8,22.5c-2.6,9.2-8.6,15.7-14.2,16.2
			c-5.2,24.3-15.1,62.9-15.7,64.8c-0.8,2.9-3.8,4.5-6.7,3.7s-4.5-3.8-3.7-6.7c0.6-2,12.6-39.9,21.1-63.3
			C197.9,140.9,196.3,132.2,198.9,123z"/>
		<path fill="#BCBEC0" d="M198.9,123c3-10.6,10.6-17.8,16.8-16L185,214.3c-2.9-0.8-4.5-3.8-3.7-6.7c0.6-2,12.6-39.9,21.1-63.3
			C197.9,140.9,196.3,132.2,198.9,123z"/>
		<path fill="#E9C09D" d="M140.3,116h19.1v25.5h-19.1v-6.4l-6.4,0v6.4h-6.4v-6.4h-6.4v6.4h-6.4v-12.7h25.5L140.3,116z M146.7,135.1
			l6.4,0v-12.8h-6.4V135.1z"/>
		<path fill="#E9C09D" d="M133.9,168.9h-19.1v-25.5h19.1v6.4l6.4,0v-6.4h6.4v6.4h6.4v-6.4h6.4v12.7H134L133.9,168.9z M127.6,149.8
			l-6.4,0v12.8h6.4V149.8z"/>
		<g>
			<path fill="#E6E7E8" d="M301.4,120.8l-4,4.6c-3.3-2.7-6.5-3.9-10.1-3.9c-7.9,0-14.5,5.3-14.5,21.1c0,15.1,6.3,21.1,14.4,21.1
				c4.9,0,8.1-2.2,11.1-4.4l3.6,4.6c-2.8,3-7.9,5.9-15,5.9c-12.7,0-21.9-9.5-21.9-27.1c0-17.7,9.9-27.1,21.7-27.1
				C293.5,115.7,297.2,117.5,301.4,120.8z"/>
			<path fill="#E6E7E8" d="M341,165l-1.6,4.9c-4-0.5-6.6-2.1-7.8-6c-2.8,4.2-7.1,6-11.9,6c-8,0-12.8-4.9-12.8-12.1
				c0-8.6,6.5-13.2,17.6-13.2h6.2v-3c0-5.8-2.8-7.9-8.4-7.9c-3,0-6.7,0.8-10.8,2.1l-1.7-5.1c4.9-1.8,9.3-2.7,13.8-2.7
				c9.7,0,14.1,4.9,14.1,13.3v18.3C337.7,163.1,339,164.2,341,165z M330.7,158.4v-9.2h-5.2c-7.4,0-11.1,2.7-11.1,8.2
				c0,4.7,2.4,7.2,6.9,7.2C325.4,164.6,328.4,162.6,330.7,158.4z"/>
			<path fill="#E6E7E8" d="M359.7,123.3v5.5h9.7l-0.8,5.4h-9v34.7h-7v-34.7h-7.1v-5.4h7.1v-5.5c0-6.7,4.4-11.5,12.5-11.5
				c3.8,0,6.4,0.7,9.6,2.1l-2.2,5.1c-2.6-1.1-4.9-1.5-7-1.5C361.3,117.6,359.7,119.5,359.7,123.3z"/>
			<path fill="#E6E7E8" d="M406.9,151.3h-25.5c0.7,9.3,5,12.8,10.8,12.8c4,0,6.9-1.1,10.4-3.5l3,4.2c-4,3.1-8.4,5-14,5
				c-11.2,0-17.7-7.8-17.7-20.5c0-12.5,6.3-21.4,16.6-21.4c10.8,0,16.5,7.5,16.5,19.8C407,149.1,406.9,150.4,406.9,151.3z
				 M380.9,116.7l15.1-8.7l3.1,5.9l-16.1,6.5L380.9,116.7z M400.1,145.7c0-7.8-3.1-12.2-9.4-12.2c-5.3,0-8.8,3.7-9.3,12.6h18.8
				V145.7z"/>
			<path fill="#E6E7E8" d="M443.1,168.9l-8.1-40.1h7.5l5.5,33.7l14.9-33.7h7.6l-19.2,40.1H443.1z"/>
			<path fill="#E6E7E8" d="M472.7,168.9l5.6-40.1h7l-5.6,40.1H472.7z M488.6,114.8c-0.4,2.5-2.4,4.3-5.2,4.3c-3,0-4.8-2.3-4.4-5.1
				c0.4-2.6,2.4-4.4,5.2-4.4C487.3,109.7,489,111.9,488.6,114.8z"/>
			<path fill="#E6E7E8" d="M500.9,154c0.2,7.3,3.6,10,8.7,10c3.7,0,7.1-1.1,10.7-3.7l3,4.7c-4.3,3.1-9,4.9-14.4,4.9
				c-9.8,0-15.3-6.2-15.3-16.3c0-10.9,5.4-25.6,20.6-25.6c8.5,0,12.7,4.9,12.7,10.2C526.9,149.4,514.9,152.5,500.9,154z
				 M519.6,138.4c0-1.9-1.1-4.9-5.5-4.9c-8.4,0-11.9,7.9-12.8,15.2C512.8,147.4,519.6,145.2,519.6,138.4z"/>
			<path fill="#E6E7E8" d="M589.3,143.7c0,11.2-5.6,26.1-21.3,26.1c-2.7,0-5.1-0.5-7.6-1.3l-2.1,15.9l-7.1,0.9l7.9-56.5h5.9
				l-0.2,5.1c4.3-4.7,8.1-6,12.2-6C584.7,128,589.3,133.6,589.3,143.7z M564.6,139.3l-3.3,23.8c2.5,0.9,4.3,1.2,7.1,1.2
				c10,0,13.7-12.2,13.7-21.1c0-7.1-3-9.7-7.1-9.7C570.7,133.5,567.4,136.3,564.6,139.3z"/>
			<path fill="#E6E7E8" d="M624.9,128.5l-2.1,6.8c-1.1-0.3-2-0.4-3.3-0.4c-5.2,0-8.7,4.7-11.5,12.8l-3,21.2h-6.9l5.6-40.1h5.9
				l-0.5,8.2c3-6.2,7.2-9.1,11.6-9.1C622.3,128,623.7,128.2,624.9,128.5z"/>
			<path fill="#E6E7E8" d="M627.1,168.9l5.6-40.1h7l-5.6,40.1H627.1z M643,114.8c-0.4,2.5-2.4,4.3-5.2,4.3c-3,0-4.8-2.3-4.4-5.1
				c0.4-2.6,2.4-4.4,5.2-4.4C641.7,109.7,643.4,111.9,643,114.8z"/>
			<path fill="#E6E7E8" d="M655.7,168.9l-8.1-40.1h7.5l5.5,33.7l14.9-33.7h7.6L664,168.9H655.7z"/>
			<path fill="#E6E7E8" d="M691.5,154c0.2,7.3,3.6,10,8.7,10c3.7,0,7.1-1.1,10.7-3.7l3,4.7c-4.3,3.1-9,4.9-14.4,4.9
				c-9.8,0-15.3-6.2-15.3-16.3c0-10.9,5.4-25.6,20.6-25.6c8.5,0,12.7,4.9,12.7,10.2C717.5,149.4,705.5,152.5,691.5,154z
				 M710.2,138.4c0-1.9-1.1-4.9-5.5-4.9c-8.4,0-11.9,7.9-12.8,15.2C703.3,147.4,710.2,145.2,710.2,138.4z M696.1,116.7l16-8.7
				l2.3,5.9l-16.7,6.5L696.1,116.7z"/>
			<path fill="#E6E7E8" d="M731.2,154c0.2,7.3,3.6,10,8.7,10c3.7,0,7.1-1.1,10.7-3.7l3,4.7c-4.3,3.1-9,4.9-14.4,4.9
				c-9.8,0-15.3-6.2-15.3-16.3c0-10.9,5.4-25.6,20.6-25.6c8.5,0,12.7,4.9,12.7,10.2C757.2,149.4,745.2,152.5,731.2,154z
				 M749.9,138.4c0-1.9-1.1-4.9-5.5-4.9c-8.4,0-11.9,7.9-12.8,15.2C743.1,147.4,749.9,145.2,749.9,138.4z"/>
		</g>
		<g>
			<g>
				<path fill="#F9E8E0" d="M202.3,108.6l-12.4,8.1l-9.2-14.2l12.4-8.1c3.9-2.5,9.1-1.4,11.7,2.5C207.4,100.8,206.2,106,202.3,108.6
					z"/>
			</g>
			<g>
				<path fill="#E1C4B7" d="M200.3,93.5c0.5,0.5,1,1,1.4,1.6c2.5,3.9,1.4,9.1-2.5,11.7l-10.3,6.7l1.4,2.9l12-7.8
					c3.9-2.5,5-7.8,2.5-11.7C203.7,95.2,202.1,94,200.3,93.5z"/>
			</g>
		</g>
		<g opacity="0.5">
			<path fill="#E1C4B7" d="M181.1,102.2c3.7,4.2,6.8,9,9.2,14.2l1.6-1.1c-2.4-5.1-5.5-9.9-9.2-14.2L181.1,102.2z"/>
		</g>
	</g>
</g>
<g id="FOND_BLANC">
</g>
</svg>
